<svg id="Capa_1" data-name="Capa 1" xmlns="http://www.w3.org/2000/svg" viewBox="0 0 888.21 1080"><defs><style>.cls-1{fill:#fff}</style></defs><path class="cls-1" d="M659.54 751.43c0 46.67-8.33 90.36-24.99 131.07-16.66 40.71-41.39 75.12-74.22 103.2-34.74 30.01-76.62 53.22-125.64 69.65C385.68 1071.77 325 1080 252.67 1080c-49.01 0-95.17-1.78-138.48-5.32-35.57-2.93-67.6-6.88-96.11-11.87C7.64 1060.98 0 1051.93 0 1041.31V866.84c0-12.05 9.76-21.81 21.81-21.81 2.54 0 5.06.45 7.45 1.32 21.7 7.92 44.24 15.31 67.63 22.17 24.69 7.26 56.29 10.86 94.77 10.86 49.85 0 88.22-6.68 115.05-20.03 26.84-13.35 45.94-31.97 57.37-55.84 10.91-23.38 17.09-49.04 18.51-76.95 1.42-27.91 2.15-63.57 2.15-107V216.92c0-12.05-9.76-21.81-21.81-21.81H163.34c-12.05 0-21.81-9.76-21.81-21.81V0h496.21c12.04 0 21.8 9.76 21.8 21.81v729.62z"/><path class="cls-1" d="M747.38 0c-4.04 0-7.32 3.28-7.32 7.32v744.1c0 46.68-8.33 90.37-24.99 131.07-16.65 40.71-41.39 75.13-74.21 103.2-34.75 30.02-76.63 53.23-125.64 69.65-11.49 3.85-23.63 7.25-36.41 10.2-8.48 1.96-7.07 14.45 1.62 14.45h.92c72.33 0 133.01-8.23 182.02-24.65 49.01-16.42 90.91-39.63 125.64-69.65 32.83-28.07 57.56-62.49 74.21-103.2 16.67-40.7 24.99-84.39 24.99-131.07V7.32c0-4.04-3.28-7.32-7.33-7.32h-133.5z"/></svg>