<svg id="Capa_1" data-name="Capa 1" xmlns="http://www.w3.org/2000/svg" viewBox="0 0 1939.04 1080"><defs><style>.cls-1{fill:#fff}</style></defs><path class="cls-1" d="M969.52 41c127.72 0 251.53 13.91 367.98 41.34 55.74 13.13 109.46 29.37 159.65 48.25 49.45 18.61 95.87 39.93 137.98 63.38 41.71 23.23 79.48 48.71 112.26 75.73 32.57 26.85 60.44 55.41 82.82 84.89 45.02 59.28 67.84 121.66 67.84 185.4s-22.83 126.12-67.84 185.4c-22.38 29.47-50.25 58.03-82.82 84.89-32.78 27.02-70.54 52.5-112.26 75.73-42.11 23.45-88.53 44.78-137.98 63.38-50.19 18.89-103.91 35.12-159.65 48.25-116.45 27.43-240.26 41.34-367.98 41.34s-251.53-13.91-367.98-41.34c-55.74-13.13-109.46-29.37-159.65-48.25-49.45-18.61-95.87-39.93-137.98-63.38-41.71-23.23-79.48-48.71-112.26-75.73-32.57-26.85-60.44-55.41-82.82-84.89-45.02-59.28-67.84-121.66-67.84-185.4s22.83-126.12 67.84-185.4c22.38-29.47 50.25-58.03 82.82-84.89 32.78-27.02 70.54-52.5 112.26-75.73 42.11-23.45 88.53-44.78 137.98-63.38 50.19-18.89 103.91-35.12 159.65-48.25C717.99 54.91 841.8 41 969.52 41m0-41C434.07 0 0 241.77 0 540s434.07 540 969.52 540 969.52-241.77 969.52-540S1504.97 0 969.52 0z"/><path class="cls-1" d="M969.52 41c90.11 0 177.43 13.6 259.56 40.41 39.31 12.83 77.19 28.7 112.59 47.17 34.9 18.2 67.69 39.08 97.43 62.04 29.55 22.81 56.34 47.87 79.62 74.47 23.31 26.63 43.29 55.04 59.39 84.43 33.13 60.47 49.93 124.56 49.93 190.49s-16.8 130.03-49.93 190.49c-16.1 29.39-36.09 57.8-59.39 84.43-23.28 26.6-50.06 51.65-79.62 74.47-29.75 22.96-62.53 43.84-97.43 62.04-35.4 18.46-73.28 34.33-112.59 47.17-82.12 26.81-169.45 40.41-259.56 40.41s-177.43-13.6-259.56-40.41c-39.31-12.84-77.19-28.7-112.59-47.17-34.9-18.2-67.69-39.08-97.43-62.04-29.55-22.81-56.34-47.87-79.62-74.47-23.31-26.63-43.29-55.04-59.39-84.43C327.8 670.03 311 605.94 311 540.01s16.8-130.03 49.93-190.49c16.1-29.39 36.09-57.8 59.39-84.43 23.28-26.6 50.06-51.65 79.62-74.47 29.75-22.96 62.53-43.84 97.43-62.04 35.4-18.46 73.28-34.33 112.59-47.17C792.08 54.6 879.41 41 969.52 41m0-41C583.19 0 270 241.77 270 540s313.19 540 699.52 540 699.52-241.77 699.52-540S1355.85 0 969.52 0z"/><path class="cls-1" d="M969.52 41c32.03 0 63.63 11.52 93.91 34.23 31.69 23.77 60.51 58.45 85.67 103.07 26.08 46.26 46.64 100.44 61.08 161.02 15.13 63.46 22.81 130.98 22.81 200.68s-7.67 137.22-22.81 200.68c-14.45 60.58-35 114.76-61.08 161.02-25.16 44.62-53.98 79.29-85.67 103.07-30.28 22.72-61.88 34.23-93.91 34.23s-63.63-11.52-93.91-34.23C843.92 981 815.1 946.32 789.94 901.7c-26.08-46.26-46.63-100.44-61.08-161.02-15.13-63.46-22.81-130.98-22.81-200.68s7.67-137.22 22.81-200.68c14.45-60.58 35-114.76 61.08-161.02 25.16-44.62 53.98-79.29 85.67-103.07C905.89 52.51 937.49 41 969.52 41m0-41C801.37 0 665.05 241.77 665.05 540s136.32 540 304.47 540 304.47-241.77 304.47-540S1137.67 0 969.52 0z"/><path class="cls-1" d="M969.52 407.16c242.99 0 474.59 16.25 652.15 45.76 84.98 14.12 153.53 30.53 203.76 48.78 49.86 18.11 66.23 32.58 71.14 38.3-4.9 5.72-21.28 20.19-71.14 38.3-50.23 18.25-118.78 34.66-203.76 48.78-177.55 29.51-409.16 45.76-652.15 45.76s-474.59-16.25-652.15-45.76c-84.98-14.12-153.53-30.53-203.76-48.78-49.86-18.11-66.23-32.58-71.14-38.3 4.91-5.72 21.28-20.19 71.14-38.3 50.23-18.25 118.78-34.66 203.76-48.78 177.55-29.51 409.16-45.76 652.15-45.76m0-41C434.07 366.16 0 443.99 0 540s434.07 173.84 969.52 173.84 969.52-77.83 969.52-173.84-434.07-173.84-969.52-173.84z"/></svg>